<?xml version="1.0" encoding="UTF-8"?>
<svg width="20px" height="20px" viewBox="0 0 20 20" version="1.1" xmlns="http://www.w3.org/2000/svg" xmlns:xlink="http://www.w3.org/1999/xlink">
    <title>accept</title>
    <g id="Page-1" stroke="none" stroke-width="1" fill="none" fill-rule="evenodd">
        <g id="Artboard" transform="translate(-234.000000, -288.000000)" fill="#000000" fill-rule="nonzero">
            <g id="accept" transform="translate(234.000000, 288.000000)">
                <path d="M9.987,0 L9.98704638,0.500008809 C4.84495183,0.506954691 0.647125549,4.62054036 0.50378376,9.73020854 L0.5,10.0002703 C0.5,15.2384441 4.76173612,19.5005405 10.0000901,19.5005405 C15.1479505,19.5005405 19.3527533,15.3841459 19.4962162,10.270323 L19.5,10.0002703 L19.9994774,10 C19.9994774,15.5140642 15.5137159,20 9.9998258,20 C4.48576152,20 2.15116813e-12,15.5140642 2.15116813e-12,10 C2.15116813e-12,4.57922324 4.33499045,0.152355169 9.72035269,0.00384909125 L9.987,0 Z M19.5,2.75 C19.6273153,2.88182274 19.6273153,3.09082557 19.5,3.22269083 L8.41478589,14.0662534 C8.35091564,14.1301237 8.26425282,14.1659286 8.17393299,14.1659286 C8.08369819,14.1659286 7.99720547,14.1300386 7.93342027,14.0662534 L3.60385124,9.73634421 C3.46871167,9.60579718 3.4649696,9.39045835 3.59551664,9.25531879 C3.72606367,9.12017922 3.94140249,9.11643715 4.07654206,9.24698419 L4.0807572,9.25111959 L8.17393299,13.3447153 L19.0189746,2.7416654 C19.1541141,2.61116089 19.369453,2.61486043 19.5,2.75 Z" id="Combined-Shape"></path>
            </g>
        </g>
    </g>
</svg>